# xmcd
#
# Track frame offsets:
#	150
#	14307
#	25584
#	38511
#	50350
#	62765
#	74004
#	86881
#	96258
#	105910
#	117425
#	128839
#	142454
#	154018
#	167983
#	180522
#	192349
#	208439
#	222066
#	234668
#	244470
#	257797
#	267449
#	282713
#
# Disc length: 3965 seconds
#
# Revision: 1
# Processed by: cddbd v1.4PL0 Copyright (c) Steve Scherf et al.
# Submitted via: audiograbber 1.80
#
DISCID=740f7b18
DTITLE=Various Artist - 48 All Time Best Country and Wesztern Classics
DYEAR=1900
DGENRE=
TTITLE0=Johnny Cash - Orange Bossom Special
TTITLE1=Roy Orbison - Blue Bayou
TTITLE2=Johnny Horton - North To Alaska
TTITLE3=Tammy Wynette - I Don´t Wanna Play House
TTITLE4=My Rifle, My Pony And Me - Dean Martin
TTITLE5=Roger Miller - King Of The Road
TTITLE6=The Browns - The Three Bells
TTITLE7=Al Caiola - The Magnificent Seven
TTITLE8=Lynn Anderson - Snowbird
TTITLE9=Kenny Rogers - Poem For My Little Lady
TTITLE10=Nancy Sinatra and Lee Hazlewood - Greenwich Village Folksong Salesman
TTITLE11=Lee Marvin - Wandrin´ Star
TTITLE12=John D. Loudermilk - The Great Snowmann
TTITLE13=Roy Drusky - Vaya Con Dios
TTITLE14=Jack and Misty - Tennesee Birdwalk
TTITLE15=Don Gibson - I Can´t Stop Loving You
TTITLE16=Billie Joe Spears - Blanket On The Ground
TTITLE17=Jimmy Dean - Big Bad John
TTITLE18=The Highwayman - Michael
TTITLE19=New Christy Minstrels - Green, Green
TTITLE20=Frankie Laine - Moonlight Gambler
TTITLE21=The Shaklefords - Five Feet High And Raising
TTITLE22=Sammy Davis jr. - Come Sundown
TTITLE23=Kingston Trio - Tom Dooley
EXTD=
EXTT0=
EXTT1=
EXTT2=
EXTT3=
EXTT4=
EXTT5=
EXTT6=
EXTT7=
EXTT8=
EXTT9=
EXTT10=
EXTT11=
EXTT12=
EXTT13=
EXTT14=
EXTT15=
EXTT16=
EXTT17=
EXTT18=
EXTT19=
EXTT20=
EXTT21=
EXTT22=
EXTT23=
PLAYORDER=
